<svg width="393" height="394" viewBox="0 0 393 394" fill="none" xmlns="http://www.w3.org/2000/svg">
<path fill-rule="evenodd" clip-rule="evenodd" d="M175.475 0.614161C153.875 3.08816 139.62 7.41116 127.753 15.0882C113.291 24.4432 105.561 34.6082 96.6651 55.9712C81.5321 92.3082 61.0041 120.435 31.8591 144.762C19.2301 155.304 12.6201 163.217 7.36509 174.088C1.22709 186.784 -0.556907 195.905 0.143093 211.008C1.54609 241.275 13.4651 276.878 31.2141 303.822C50.2131 332.663 79.2671 358.702 107.895 372.546C115.115 376.038 117.168 376.588 122.969 376.588C143.988 376.588 158.303 354.344 149.566 335.26C143.19 321.332 129.678 315.211 113.863 319.087C97.5611 323.082 83.3901 316.887 75.6551 302.383C73.7301 298.773 73.3651 296.573 73.3651 288.588C73.3651 280.603 73.7301 278.403 75.6551 274.793C81.3071 264.195 90.1021 258.256 102.438 256.707C110.84 255.652 114.452 253.955 118.778 249.028C123.028 244.187 123.783 241.94 124.813 231.054C126.59 212.265 137.294 200.39 155.218 197.319C166.839 195.329 180.747 200.608 187.997 209.762C201.119 226.33 197.354 251.446 180.106 262.397C174.382 266.032 166.098 268.588 160.044 268.588C146.404 268.588 136.659 277.756 136.659 290.588C136.659 297.468 139.271 303.133 144.386 307.35C153.447 314.818 164.657 314.053 174.923 305.266C179.176 301.625 184.601 299.588 190.046 299.588C195.403 299.588 203.869 304.4 207.353 309.424C210.069 313.342 210.359 314.515 210.359 321.588C210.359 328.695 210.079 329.815 207.315 333.752C202.687 340.343 197.492 342.731 185.995 343.552C174.837 344.35 169.772 346.454 164.921 352.309C152.469 367.338 161.435 390.152 180.943 393.078C186.853 393.964 192.694 392.352 200.878 387.575C210.215 382.125 223.176 376.978 235.062 374C243.629 371.854 248.886 371.289 266.359 370.636C289.038 369.789 291.865 369.206 301.267 363.445C311.462 357.197 325.374 346.004 335.377 336C363.15 308.228 381.128 274.727 389.439 235.26C392.62 220.155 393.852 189.643 391.916 173.928C388.573 146.793 378.508 116.086 370.05 107.218C366.568 103.568 357.946 98.6192 355.03 98.5982C352.585 98.5802 340.435 93.3572 333.496 89.3402C325.287 84.5892 313.283 73.4422 307.211 64.9332C301.992 57.6182 296.867 46.8062 293.96 36.9782C291.421 28.3922 286.021 21.7172 278.551 17.9322C265.578 11.3582 246.385 5.40416 227.359 2.05116C216.674 0.167157 186.638 -0.663839 175.475 0.614161ZM238.346 104.329C226.807 108.452 219.267 114.967 214.313 125.092C204.49 145.17 213.104 169.177 233.618 178.895C239.801 181.823 241.187 182.088 250.359 182.088C259.531 182.088 260.917 181.823 267.1 178.895C297.704 164.397 298.357 121.817 268.204 106.914C261.586 103.643 259.638 103.156 252.02 102.866C245.563 102.621 242.083 102.993 238.346 104.329Z" fill="white"/>
</svg>
